<svg width="320" height="320" viewBox="0 0 320 320" fill="none" xmlns="http://www.w3.org/2000/svg">
  <rect width="320" height="320" rx="32" fill="#F3F4F6" />
  <circle cx="160" cy="140" r="64" fill="#E5E7EB" />
  <path d="M73 250C73 213.82 100.82 186 137 186H183C219.18 186 247 213.82 247 250V270H73V250Z" fill="#E5E7EB" />
  <path d="M160 120C169.941 120 178 111.941 178 102C178 92.0588 169.941 84 160 84C150.059 84 142 92.0588 142 102C142 111.941 150.059 120 160 120Z" fill="#D1D5DB" />
  <path d="M94 200C94 171.431 116.431 149 145 149H175C203.569 149 226 171.431 226 200V218H94V200Z" fill="#D1D5DB" />
</svg>
